<svg xmlns="http://www.w3.org/2000/svg" class="ngn-magazine" viewBox="0 0 186 24"><path d="M176.556.254v1.81h5.915l-5.273 5.279 1.277 1.282 5.316-5.327v6.013h1.809V.254h-9.044Z" style="fill:var(--wp--custom--color--accent, #cf2b28)"/><g style="fill:var(--wp--custom--color--emphasize, #000)"><path d="M0 18.369V.266h3.26l9.993 12.424V.266h3.593V18.37h-3.312l-9.94-12.29v12.29H0ZM19.69 9.316C19.69 4.025 23.68 0 28.963 0c3.126 0 6.015 1.493 7.917 4.251l-2.833 2.026c-1.41-2.132-3.247-2.946-5.084-2.946-3.288 0-5.589 2.479-5.589 5.985 0 3.507 2.394 5.986 5.681 5.986 3.007 0 4.698-1.772 5.11-3.693h-5.468V8.504h9.101c.053.468.066 1.001.066 1.453 0 4.654-3.273 8.678-8.808 8.678-5.537 0-9.369-4.024-9.369-9.316l.003-.003ZM40.709 18.369V.266h3.26l9.993 12.424V.266h3.593V18.37h-3.312l-9.94-12.29v12.29h-3.594ZM63.483.266l7.435 14.35L78.341.266h1.88v18.128h-1.599V3.19l-7.049 13.442h-1.32L63.204 3.19v15.204h-1.599V.266h1.88-.002ZM89.218 10.8c1.478 0 3.079.4 4.038 1.015v-1.201c0-2.404-1.614-3.832-4.05-3.832-1.534 0-3.12.802-4.144 2.057l-1.014-1.016c1.24-1.548 3.197-2.509 5.145-2.509 3.41 0 5.649 2.004 5.649 5.073v8.01h-1.546v-2.323c-.76 1.548-2.532 2.589-4.743 2.589-2.758 0-4.864-1.468-4.864-3.831S85.956 10.8 89.22 10.8h-.002Zm-3.93 3.951c0 1.642 1.305 2.59 3.518 2.59 2.545 0 4.437-2.057 4.452-4.206-.76-.613-2.452-1.068-4.01-1.068-2.384 0-3.958 1.068-3.958 2.682l-.002.002ZM97.803 11.974c0-3.751 2.785-6.662 6.477-6.662 2.411 0 4.331 1.174 5.302 2.697V5.581h1.599v11.84c0 3.977-2.718 6.582-7.089 6.582-2.267 0-4.304-.815-5.69-2.31l1.04-1.054c1.264 1.282 2.878 1.908 4.65 1.908 3.345 0 5.49-1.843 5.49-4.751v-1.868c-.958 1.536-2.878 2.738-5.302 2.738-3.692 0-6.477-2.924-6.477-6.687v-.005Zm1.573 0c0 2.951 2.146 5.218 5.012 5.218 3.011 0 5.277-2.27 5.277-5.218 0-2.95-2.266-5.194-5.277-5.194-3.012 0-5.012 2.27-5.012 5.194ZM119.806 10.8c1.478 0 3.079.4 4.038 1.015v-1.201c0-2.404-1.611-3.832-4.05-3.832-1.534 0-3.12.802-4.144 2.057l-1.013-1.016c1.239-1.548 3.197-2.509 5.144-2.509 3.41 0 5.651 2.004 5.651 5.073v8.01h-1.545v-2.323c-.761 1.548-2.532 2.589-4.743 2.589-2.758 0-4.864-1.468-4.864-3.831s2.266-4.032 5.531-4.032h-.005Zm-3.93 3.951c0 1.642 1.305 2.59 3.519 2.59 2.544 0 4.436-2.057 4.451-4.206-.76-.613-2.451-1.068-4.01-1.068-2.384 0-3.957 1.068-3.957 2.682l-.003.002ZM128.336 17.019l7.315-10.025h-7.25V5.578h9.195v1.375l-7.331 10.026h7.677v1.415h-9.609v-1.375h.003ZM141.636.28c.587 0 1.013.414 1.013 1 0 .585-.426 1-1.013 1-.588 0-.999-.415-.999-1 0-.586.414-1 .999-1Zm.8 5.298v12.816h-1.599V5.578h1.599ZM146.437 18.394V5.578h1.598v2.23c1.014-1.734 2.838-2.496 4.638-2.496 3.224 0 5.45 1.79 5.45 5.259v7.823h-1.598v-7.343c0-2.87-1.453-4.246-4.103-4.246-2.44 0-4.384 1.775-4.384 4.324v7.263h-1.599l-.002.002ZM167.599 5.312c3.877 0 6.183 2.697 6.196 5.968 0 .36-.028.734-.08 1.109h-11.06c.201 2.883 2.44 4.806 5.117 4.806a5.602 5.602 0 0 0 4.492-2.23l1.187.867c-1.265 1.896-3.478 2.831-5.704 2.831-3.917 0-6.73-2.951-6.73-6.674 0-3.723 2.838-6.675 6.582-6.675v-.002Zm-4.851 5.714h9.474c-.121-2.524-2.146-4.246-4.626-4.246-2.479 0-4.665 1.71-4.85 4.246h.002Z"/></g></svg>